<?xml version="1.0" standalone="no"?>
<!DOCTYPE svg PUBLIC "-//W3C//DTD SVG 20010904//EN"
 "http://www.w3.org/TR/2001/REC-SVG-20010904/DTD/svg10.dtd">
<svg version="1.0" xmlns="http://www.w3.org/2000/svg"
 width="420.000000pt" height="488.000000pt" viewBox="0 0 420.000000 488.000000"
 preserveAspectRatio="xMidYMid meet">
<metadata>
Created by potrace 1.16, written by Peter Selinger 2001-2019
</metadata>
<g transform="translate(0.000000,488.000000) scale(0.100000,-0.100000)"
fill="#000000" stroke="none">
<path d="M2131 4800 c-41 -11 -88 -28 -105 -38 -30 -17 -31 -21 -34 -89 -4
-91 -15 -102 -73 -73 -44 23 -114 30 -162 17 l-28 -8 31 -38 c48 -61 61 -106
70 -229 9 -135 21 -157 101 -187 l54 -21 3 -69 c5 -122 -34 -285 -85 -351 -14
-19 -28 -34 -32 -34 -4 0 -64 52 -133 115 -142 129 -166 168 -155 250 4 27 2
47 -4 51 -33 20 -39 -89 -9 -155 30 -64 26 -131 -14 -247 -47 -135 -53 -208
-26 -304 26 -91 35 -150 24 -150 -16 0 -83 112 -90 148 -4 20 -2 54 5 77 6 22
18 63 26 90 21 71 19 175 -4 239 -26 74 -62 123 -183 247 -112 116 -201 180
-313 224 -120 47 -267 127 -355 193 -89 68 -152 90 -171 61 -16 -25 -10 -29
46 -29 51 0 55 -2 71 -32 10 -20 20 -76 26 -148 32 -402 115 -624 295 -789
105 -97 259 -160 389 -161 68 0 132 -34 161 -86 33 -58 30 -68 -15 -45 -57 29
-145 49 -252 56 -254 18 -400 87 -400 190 -1 72 -32 104 -45 45 -8 -34 16 -92
68 -169 45 -64 79 -136 118 -248 42 -117 104 -241 142 -280 17 -18 28 -35 26
-38 -9 -9 -274 85 -286 101 -8 11 -10 43 -7 98 5 70 3 85 -16 114 -38 61 -127
77 -181 33 -39 -31 -14 -43 43 -21 29 11 53 18 55 16 2 -1 -2 -40 -8 -86 -16
-116 -7 -243 20 -305 58 -131 172 -294 253 -361 23 -20 44 -39 45 -43 2 -3
-28 -20 -65 -38 -40 -19 -114 -71 -185 -130 -206 -171 -228 -183 -349 -183
-62 0 -69 2 -110 36 -57 49 -96 64 -163 64 -42 0 -60 -5 -75 -20 -40 -40 -19
-51 45 -25 56 24 71 13 116 -82 138 -289 532 -414 872 -277 53 21 58 22 63 6
14 -44 34 -68 126 -153 55 -50 106 -102 115 -115 15 -23 13 -26 -35 -79 -54
-59 -78 -111 -68 -151 4 -14 30 -47 57 -72 62 -57 77 -85 90 -165 17 -104 57
-147 137 -147 50 0 102 28 130 70 30 44 25 81 -19 143 -18 26 -31 48 -28 49 2
2 36 18 74 37 94 45 155 91 185 140 14 22 28 41 31 41 8 0 71 -139 94 -205 25
-77 43 -160 55 -270 12 -107 31 -179 62 -236 19 -34 19 -38 4 -89 -23 -76 -20
-147 9 -237 30 -93 76 -175 92 -165 22 14 92 178 102 237 8 55 6 80 -14 187
-6 28 -2 48 19 90 27 56 35 90 61 258 9 58 18 111 20 118 18 51 315 -275 315
-345 0 -29 -91 -9 -147 32 -20 16 -21 15 -16 -5 8 -31 94 -101 190 -157 46
-26 102 -63 124 -80 23 -18 43 -33 46 -33 2 0 14 21 25 47 11 27 29 59 39 72
28 35 23 58 -23 119 l-42 54 -1 112 c0 91 -3 117 -20 146 l-19 35 -7 -55 c-6
-56 -23 -100 -38 -100 -23 0 -62 230 -44 256 5 5 43 36 85 67 156 115 179 210
103 424 -19 53 -34 98 -32 99 1 1 43 12 92 23 115 27 262 99 319 157 70 70 74
118 27 317 -26 108 -27 184 -5 216 15 20 23 23 63 18 64 -7 100 1 118 30 15
23 15 32 0 112 -9 48 -17 92 -17 98 0 6 21 14 46 18 73 11 191 52 291 101 93
46 193 124 193 150 0 21 -9 17 -51 -21 -27 -24 -49 -35 -70 -35 -24 0 -224 80
-301 121 -15 8 -13 17 17 86 58 138 115 370 115 470 0 40 -58 223 -75 235 -31
23 -33 -7 -4 -63 19 -39 20 -42 3 -67 -32 -48 -108 -124 -144 -142 -19 -10
-69 -25 -110 -34 -41 -10 -99 -25 -130 -35 -30 -10 -67 -21 -81 -25 l-27 -6
-7 88 c-9 122 -30 206 -87 362 -72 194 -89 267 -95 410 -6 126 -16 171 -35
152 -7 -7 -6 -17 1 -30 18 -34 12 -94 -15 -147 -14 -27 -86 -138 -160 -245
-74 -107 -152 -221 -172 -252 -20 -32 -40 -58 -43 -58 -11 0 -67 144 -83 217
-9 40 -16 113 -16 163 l0 91 53 23 c81 37 89 49 99 173 11 129 30 193 71 239
39 45 26 59 -51 58 -41 -1 -73 -8 -111 -27 -29 -15 -55 -27 -57 -27 -2 0 -4
33 -4 74 0 95 -17 116 -115 146 -101 31 -222 35 -314 10z m285 -30 c43 -11 83
-25 88 -30 14 -14 -4 -13 -53 5 -53 18 -52 11 2 -16 41 -21 57 -35 57 -53 0
-5 -8 -2 -18 7 -17 15 -21 14 -56 -15 l-38 -31 -52 52 c-28 28 -60 51 -71 51
-11 0 -43 -23 -71 -51 l-53 -52 -31 27 c-34 28 -64 34 -76 14 -7 -12 -22 12
-23 39 -2 31 136 71 250 72 36 1 101 -8 145 -19z m-99 -93 c16 -18 40 -50 53
-71 l23 -39 42 49 42 48 42 -62 c23 -34 47 -62 54 -62 7 0 48 14 90 30 43 17
82 30 88 30 26 0 1 -36 -71 -101 -44 -39 -80 -79 -80 -88 0 -9 14 -38 30 -66
31 -52 38 -85 19 -85 -6 0 -42 11 -79 24 -197 71 -389 72 -591 2 -41 -14 -79
-26 -82 -26 -16 0 -5 44 23 93 17 30 30 57 30 60 0 4 -39 45 -87 92 l-88 84
35 1 c19 0 64 -14 98 -30 35 -17 65 -30 67 -30 1 0 22 29 45 65 23 36 44 65
46 65 2 0 20 -18 40 -40 20 -22 40 -40 45 -40 4 0 22 21 40 47 65 94 82 100
126 50z m-1651 -324 c29 -71 44 -148 59 -309 8 -89 17 -170 20 -180 4 -11 -3
-3 -14 16 -34 58 -60 154 -70 262 -14 147 -21 248 -16 248 3 0 12 -17 21 -37z
m1675 -72 c-11 -7 -4 -11 25 -16 59 -10 64 -13 64 -36 0 -20 -4 -21 -42 -16
l-43 6 30 -14 c17 -8 36 -14 43 -15 6 0 12 -4 12 -8 0 -4 -17 -6 -37 -5 l-38
4 40 -20 40 -20 -45 4 -45 5 37 -18 c45 -20 50 -36 8 -27 -36 8 -40 -2 -5 -15
19 -7 25 -17 25 -40 0 -28 -2 -30 -27 -24 l-28 6 25 -21 25 -21 -25 0 -25 0
25 -20 25 -19 -25 6 c-22 6 -24 5 -11 -10 12 -16 4 -17 -108 -17 -90 0 -121 3
-121 13 -1 6 -9 77 -19 157 -12 89 -15 152 -10 162 11 20 37 25 154 26 57 1
85 -2 76 -7z m-284 -48 c4 -16 8 -98 8 -183 -1 -179 -13 -236 -77 -364 -54
-106 -114 -195 -233 -341 -207 -254 -244 -338 -252 -575 -8 -205 13 -309 110
-562 14 -37 22 -70 17 -73 -5 -3 -25 26 -45 65 -19 38 -37 70 -40 70 -5 0 39
-122 50 -141 4 -5 2 -9 -2 -9 -5 0 -26 38 -47 85 -21 47 -41 84 -43 82 -2 -3
12 -46 31 -96 19 -51 29 -91 23 -89 -19 6 -74 126 -97 209 -77 287 -61 561 49
794 49 105 92 165 253 358 69 82 139 173 158 203 78 129 111 294 93 469 -9 86
-8 102 5 113 23 18 31 15 39 -15z m-1078 -13 c23 -17 55 -51 70 -76 53 -83
108 -294 89 -343 -7 -20 -10 -21 -29 -7 -59 41 -140 181 -154 266 -4 25 -16
68 -26 95 -22 59 -24 95 -6 95 8 0 33 -14 56 -30z m1557 -150 c1 -293 26 -351
282 -656 231 -274 312 -463 312 -730 0 -118 -24 -311 -41 -328 -6 -6 -9 -5 -9
5 -1 7 -7 1 -16 -16 l-14 -30 5 28 c7 37 -1 34 -24 -11 -18 -34 -20 -35 -21
-12 -1 24 -1 24 -15 6 -20 -26 -19 -21 9 92 36 140 49 262 43 377 -11 194 -63
316 -214 500 -54 66 -112 138 -129 160 -58 76 -175 273 -196 331 -27 75 -35
227 -18 364 10 84 15 100 29 98 14 -3 16 -25 17 -178z m-1410 79 c119 -73 223
-346 185 -486 -15 -53 -29 -62 -53 -32 -40 51 -59 102 -69 187 -12 96 -48 221
-85 294 -34 68 -32 71 22 37z m1949 -101 c19 -40 25 -70 25 -121 0 -77 -15
-121 -55 -157 l-28 -25 7 145 c6 140 14 210 23 210 2 0 15 -24 28 -52z m-70
-100 c-4 -79 -11 -152 -15 -163 -6 -17 -10 -14 -35 24 -35 52 -44 130 -23 181
14 33 64 100 75 100 3 0 2 -64 -2 -142z m-2059 -30 c55 -57 117 -139 110 -145
-15 -16 -245 134 -268 175 -18 29 -24 92 -12 105 9 9 108 -70 170 -135z m424
-3 c83 -121 113 -327 64 -431 l-18 -37 -22 27 c-34 38 -44 88 -44 211 0 75 -6
136 -20 193 -24 100 -24 93 -5 85 9 -3 29 -25 45 -48z m885 -79 c44 0 106 3
138 7 46 7 57 6 57 -5 0 -23 82 -177 137 -258 28 -41 107 -147 176 -234 70
-88 143 -190 162 -228 20 -37 34 -68 32 -68 -2 0 -30 9 -63 21 -33 11 -98 23
-149 26 -112 7 -160 -6 -339 -89 -240 -112 -330 -130 -449 -88 -185 65 -337
41 -407 -65 l-20 -30 0 31 c0 45 35 175 61 226 37 73 94 149 194 258 121 132
195 244 264 397 l54 121 36 -10 c20 -6 72 -11 116 -12z m655 -17 c16 -23 38
-65 50 -95 23 -63 36 -179 23 -213 -9 -22 -13 -20 -86 60 -88 94 -105 132 -88
196 11 42 45 93 62 93 5 0 22 -18 39 -41z m-1998 -8 c128 -66 303 -195 329
-243 11 -21 10 -21 -56 -16 -125 11 -314 129 -366 229 -41 81 -19 87 93 30z
m2260 -51 c25 -48 23 -133 -2 -186 -26 -54 -101 -134 -124 -134 -17 0 -18 9
-14 118 5 125 16 161 66 215 33 35 52 31 74 -13z m-2027 -225 c130 -41 178
-62 213 -95 30 -28 20 -40 -32 -40 -103 0 -286 83 -383 173 -34 33 -63 64 -63
69 0 5 33 -8 73 -30 39 -22 126 -57 192 -77z m2084 -44 c25 -58 -18 -175 -96
-261 -51 -57 -79 -62 -100 -20 -20 39 -16 118 8 156 24 39 146 154 164 154 7
0 18 -13 24 -29z m561 -128 c0 -42 -55 -96 -130 -129 -33 -15 -191 -33 -180
-21 8 9 294 166 303 167 4 0 7 -8 7 -17z m-2480 -133 c60 -31 115 -108 108
-153 -2 -17 -11 -23 -40 -25 -67 -6 -101 20 -147 109 -23 43 -41 83 -41 89 0
14 77 1 120 -20z m2446 -12 c-8 -44 -35 -79 -77 -101 -29 -16 -51 -18 -155
-14 -117 5 -171 17 -159 38 15 23 69 38 166 47 74 7 120 17 159 35 72 33 74
33 66 -5z m-260 -157 c88 -40 120 -129 68 -190 -14 -17 -29 -31 -33 -31 -4 0
-13 28 -19 61 -13 72 -35 101 -71 97 -22 -3 -26 -9 -29 -40 -3 -34 -6 -38 -31
-38 -31 0 -81 40 -81 64 0 79 103 119 196 77z m-614 -16 c59 -21 104 -70 113
-125 5 -31 3 -46 -9 -59 -15 -17 -15 -19 -1 -24 25 -10 17 -47 -17 -81 -85
-84 -414 -82 -650 4 -105 38 -221 103 -193 108 52 9 158 50 281 108 74 36 158
71 187 79 66 19 224 14 289 -10z m-1540 -27 c21 -6 37 -16 35 -22 -2 -6 -26
-23 -53 -38 -52 -29 -110 -36 -147 -17 -26 14 -77 60 -77 70 0 18 187 24 242
7z m554 -100 c38 -7 121 -43 229 -99 94 -48 202 -96 240 -108 88 -26 225 -41
385 -44 137 -2 179 9 232 60 34 33 45 25 23 -16 -9 -18 -13 -36 -10 -41 4 -6
-1 -17 -9 -26 -18 -18 -13 -34 11 -34 12 0 14 -7 10 -33 -12 -73 -71 -269 -86
-284 -17 -18 -129 -15 -436 13 -182 16 -303 10 -429 -22 -108 -27 -329 -95
-358 -110 -27 -14 -28 -14 -52 33 -60 120 -116 360 -116 497 1 106 34 167 115
209 37 20 166 22 251 5z m-1016 -110 c12 -7 30 -29 40 -49 20 -39 38 -139 25
-139 -5 0 -27 11 -51 25 -57 34 -84 79 -84 143 0 50 1 51 24 42 14 -5 34 -15
46 -22z m2720 -15 c0 -1 -15 -10 -32 -20 -27 -14 -29 -18 -15 -21 17 -4 17 -6
-5 -29 l-23 -26 27 5 27 5 -20 -26 c-19 -24 -19 -26 -3 -38 16 -12 16 -15 -7
-39 l-24 -27 23 6 c30 7 30 -26 0 -47 -26 -19 -20 -20 18 -6 l27 11 -17 -26
c-16 -24 -16 -25 6 -25 18 0 14 -6 -22 -26 -61 -35 -62 -38 -12 -30 33 5 43 3
40 -6 -3 -9 -29 -14 -76 -16 l-72 -3 0 81 c0 96 -14 130 -65 154 -41 20 -58
16 -132 -25 -40 -22 -51 -25 -46 -12 5 13 2 15 -13 9 -12 -5 -7 5 15 28 19 20
30 36 24 36 -7 0 -15 -4 -18 -10 -3 -5 -11 -10 -17 -10 -6 0 -3 9 7 20 19 21
85 43 163 55 23 4 40 10 37 15 -3 4 -51 -3 -107 -16 -56 -14 -105 -23 -110
-22 -5 2 -3 11 4 20 17 23 112 47 229 57 53 5 109 16 124 24 25 13 30 12 47
-2 10 -8 18 -17 18 -18z m-2551 -68 c41 -37 64 -78 76 -134 l7 -34 -37 6 c-71
12 -124 71 -139 160 -7 36 -6 37 24 37 20 0 42 -11 69 -35z m139 -27 c47 -29
81 -86 89 -146 7 -61 -7 -68 -56 -27 -35 30 -61 71 -96 150 l-26 57 28 -7 c15
-3 43 -16 61 -27z m2181 -88 c31 -16 45 -64 29 -96 -18 -39 -138 -139 -148
-124 -5 8 -22 4 -60 -15 -28 -14 -54 -24 -57 -21 -3 2 22 19 56 35 34 17 61
36 61 41 0 6 -23 -1 -51 -16 -28 -14 -53 -23 -56 -20 -3 3 20 17 51 33 31 15
56 31 56 35 0 11 -2 11 -55 -12 -58 -25 -67 -25 -35 0 24 19 24 20 3 20 -45 0
3 65 91 124 40 27 84 33 115 16z m-2461 -46 c28 -15 101 -36 173 -50 143 -28
179 -41 234 -90 l40 -34 -30 6 c-33 6 -35 9 35 -47 l25 -20 -35 5 c-19 3 -65
21 -102 40 -38 19 -70 30 -74 25 -3 -5 50 -37 118 -70 140 -70 113 -71 -35 -2
-53 25 -100 43 -103 40 -3 -3 47 -33 112 -67 118 -60 118 -61 69 -55 -104 11
-332 146 -419 247 -36 41 -72 98 -62 98 2 0 26 -12 54 -26z m2475 -143 c-41
-65 -192 -152 -323 -186 -97 -25 -316 -30 -490 -11 -79 8 -146 13 -148 11 -3
-3 57 -17 157 -36 43 -8 42 -8 -16 -5 -35 2 -63 1 -63 -4 0 -8 67 -16 210 -25
57 -3 78 -2 65 4 -11 5 -45 11 -75 12 -30 1 19 6 110 9 252 11 456 72 534 159
11 11 23 21 28 21 16 0 9 -134 -8 -159 -16 -22 -16 -23 5 -12 19 10 22 9 31
-14 15 -39 12 -56 -12 -83 l-23 -24 24 7 c16 5 21 4 17 -4 -4 -6 0 -11 10 -11
13 0 14 -3 4 -15 -10 -12 -10 -15 0 -15 10 0 10 -3 0 -15 -10 -12 -10 -15 4
-15 20 0 20 -3 -4 -50 -18 -36 -19 -39 -3 -34 19 6 -12 -26 -57 -59 -24 -17
-21 -17 28 -1 9 3 -1 -11 -23 -31 -79 -72 -263 -140 -359 -133 -39 3 -37 4 57
36 53 19 97 37 97 42 0 4 -37 -1 -82 -12 -45 -10 -86 -17 -92 -15 -6 2 8 7 31
11 67 12 59 22 -13 18 -35 -2 -64 -2 -64 1 0 3 5 18 10 33 10 26 12 27 75 21
36 -2 65 -1 65 4 0 18 -66 49 -103 49 -55 0 -100 -22 -137 -69 l-33 -40 -81
-3 -81 -3 55 -10 55 -10 -105 -11 -105 -11 102 -2 c56 0 104 -5 108 -11 3 -5
-8 -16 -25 -25 -24 -12 -58 -15 -171 -13 l-141 3 -31 75 -32 75 -12 -70 c-7
-38 -18 -74 -23 -79 -14 -14 -42 3 -55 32 -13 29 -17 28 -35 -11 -18 -38 -43
-47 -215 -77 -270 -47 -431 -130 -501 -260 l-25 -45 6 48 c7 53 -1 62 -16 17
-6 -16 -15 -30 -19 -30 -4 0 3 34 15 75 27 86 19 99 -13 23 -27 -65 -36 -59
-17 12 8 30 13 56 11 57 -2 2 -14 -13 -26 -34 -26 -43 -36 -32 -21 23 l10 37
-23 -22 c-32 -31 -37 -26 -21 20 8 23 15 43 15 45 0 3 -13 -10 -30 -28 l-29
-33 -1 40 c0 32 -3 37 -11 23 -16 -28 -32 -21 -27 12 4 29 4 29 -15 12 -19
-16 -20 -16 -14 6 19 63 19 67 -5 32 -17 -26 -24 -30 -26 -18 -6 29 27 84 90
153 33 36 55 65 50 65 -21 0 -71 -51 -118 -120 -52 -77 -67 -86 -33 -19 33 65
76 114 154 177 89 71 95 77 65 62 -54 -28 -118 -75 -179 -134 -54 -52 -61 -56
-45 -27 66 117 375 316 616 395 166 54 165 54 205 -10 11 -17 12 -15 13 16 1
48 10 60 56 70 62 15 322 11 477 -6 197 -22 373 -15 489 20 116 34 203 77 258
125 54 48 69 52 43 12z m-2342 -201 c30 -6 77 -21 104 -35 50 -24 165 -119
165 -136 0 -5 -22 -9 -49 -9 -39 0 -56 6 -92 33 -24 19 -59 42 -77 51 -43 22
-153 46 -217 46 l-50 0 25 20 c48 38 103 46 191 30z m-59 -91 c29 -6 67 -18
83 -26 33 -17 75 -52 75 -64 0 -4 -26 -13 -57 -19 -50 -11 -66 -10 -133 9 -49
13 -107 21 -159 21 -44 0 -81 4 -81 9 0 15 70 54 120 67 58 16 87 17 152 3z
m-70 -109 c21 -6 40 -15 43 -19 5 -9 -195 -90 -270 -110 -69 -19 -175 -14
-214 10 -18 11 -32 22 -30 24 4 3 296 89 334 98 37 9 100 7 137 -3z m-432
-211 c77 -51 171 -97 265 -130 l80 -29 -75 6 c-221 17 -423 151 -496 329 -16
38 -12 36 77 -50 52 -50 119 -107 149 -126z m700 158 c0 -40 -58 -143 -104
-185 -57 -52 -114 -81 -173 -88 l-48 -5 25 18 c49 34 109 103 151 174 43 73
85 109 127 109 16 0 22 -6 22 -23z m-186 -69 c-41 -81 -79 -124 -136 -152 -56
-28 -123 -34 -151 -13 -15 11 -8 20 64 82 45 39 94 78 111 89 24 15 100 42
131 45 4 1 -5 -23 -19 -51z m1913 -96 c-11 -43 2 -79 73 -192 41 -66 74 -156
68 -187 -4 -20 -165 232 -179 280 -11 36 -3 81 18 114 23 34 31 28 20 -15z
m-507 -136 c13 -35 40 -46 114 -46 36 0 66 -2 66 -4 0 -3 -25 -40 -56 -83 -68
-94 -100 -156 -149 -288 -20 -55 -43 -110 -51 -123 -10 -15 -13 -34 -8 -57 7
-37 -23 -294 -36 -309 -16 -17 -29 33 -45 173 -25 221 -75 371 -181 548 -31
52 -54 96 -51 99 2 2 53 11 113 20 92 13 112 19 128 39 18 22 20 23 42 8 29
-19 62 -9 74 23 12 31 28 31 40 0z m255 -86 c-23 -45 -13 -47 24 -5 17 20 31
33 31 30 0 -10 -46 -96 -109 -205 -107 -183 -178 -394 -200 -595 -10 -83 -18
-113 -51 -180 -22 -44 -40 -85 -40 -92 0 -6 10 -29 23 -50 35 -60 31 -156 -12
-255 -18 -43 -36 -80 -41 -83 -11 -7 -47 56 -70 126 -28 82 -26 157 5 219 l25
49 -40 78 c-34 66 -43 95 -55 188 -24 189 -56 302 -132 465 -40 86 -93 244
-93 277 0 7 9 13 20 13 23 0 79 -79 134 -188 77 -153 109 -265 132 -457 9 -74
21 -140 30 -153 41 -63 79 -29 94 83 48 348 86 458 227 671 53 79 78 104 53
52 -7 -14 1 -9 21 14 38 44 47 43 24 -2z m-756 -106 c13 -36 21 -67 18 -70 -2
-2 -16 0 -31 6 -73 27 -132 0 -221 -104 -52 -61 -68 -68 -36 -15 33 54 24 58
-19 9 -43 -48 -52 -45 -20 8 16 26 17 32 5 32 -8 0 -15 -5 -15 -12 0 -6 -3 -9
-6 -6 -16 17 51 98 124 147 36 25 139 70 162 71 10 0 24 -24 39 -66z m864 -6
c20 -29 47 -66 61 -83 24 -30 30 -58 28 -123 l-2 -33 -29 15 c-65 34 -120 130
-121 212 0 82 13 84 63 12z m227 -58 c7 -16 10 -41 6 -54 -8 -33 -52 -83 -87
-102 l-29 -15 0 46 c0 52 18 100 49 133 29 30 46 28 61 -8z m-1175 -92 l-5
-53 21 53 c12 28 26 52 30 52 18 0 8 -56 -16 -103 -14 -26 -22 -47 -18 -47 5
0 24 29 43 65 33 61 35 63 42 39 10 -39 -5 -66 -64 -116 -80 -67 -108 -84
-195 -121 -44 -19 -101 -49 -128 -67 -50 -34 -50 -32 -3 38 33 48 30 52 -16
17 -18 -14 -36 -25 -39 -25 -3 0 3 21 14 46 l19 47 -34 -27 c-39 -29 -52 -18
-29 27 16 32 4 36 -22 7 -10 -11 -22 -20 -27 -20 -13 0 -9 34 7 56 23 31 17
37 -15 14 -35 -25 -35 -24 -15 24 10 24 11 36 4 36 -6 0 4 18 21 40 17 22 35
40 40 40 4 0 25 -30 46 -66 74 -127 134 -125 235 9 58 78 75 91 65 53 -9 -36
10 -33 23 4 15 45 22 36 16 -22z m854 -85 c11 -21 45 -63 75 -93 l56 -54 0
-62 c0 -34 -3 -70 -6 -79 -8 -19 -194 332 -194 366 0 11 5 30 11 42 11 19 13
17 25 -31 8 -29 22 -69 33 -89z m165 -428 c40 -60 98 -141 129 -179 59 -71 68
-95 42 -116 -8 -7 -20 -30 -26 -52 -13 -51 -19 -46 -108 87 -79 118 -159 266
-226 415 -65 146 -69 156 -51 141 12 -10 14 -8 9 11 -5 23 -5 23 11 3 16 -19
17 -19 11 15 -5 26 12 2 65 -90 40 -69 105 -174 144 -235z"/>
<path d="M2216 4584 l-49 -86 17 -32 c9 -17 32 -49 51 -71 l34 -40 46 45 c53
52 65 92 40 141 -21 42 -78 128 -85 129 -3 0 -27 -39 -54 -86z"/>
<path d="M2036 4526 c-39 -51 -50 -89 -35 -118 17 -33 50 -68 66 -68 17 0 61
68 69 107 5 27 1 37 -33 73 l-39 42 -28 -36z"/>
<path d="M2443 4528 c-41 -46 -44 -61 -19 -114 13 -27 30 -57 38 -67 12 -17
15 -16 46 16 23 23 35 48 39 74 4 34 1 45 -27 76 -37 43 -49 45 -77 15z"/>
<path d="M2394 3590 c-55 -22 -70 -95 -29 -135 71 -72 180 34 113 109 -27 29
-55 38 -84 26z"/>
<path d="M2246 451 c-34 -66 -29 -161 12 -212 l19 -22 16 42 c21 51 22 140 3
186 -18 43 -31 44 -50 6z"/>
<path d="M2836 738 c4 -7 29 -46 56 -85 53 -80 58 -99 7 -28 -35 49 -45 53
-30 11 15 -37 5 -32 -25 14 -15 22 -29 38 -32 36 -7 -8 112 -206 124 -206 13
0 34 43 34 71 0 11 -5 30 -12 42 -22 42 -110 157 -119 157 -6 0 -7 -6 -3 -12z"/>
<path d="M3418 4114 c-5 -4 -8 -22 -8 -41 0 -31 -2 -33 -20 -23 -26 14 -26 -2
1 -26 l21 -19 -38 -12 c-35 -10 -36 -12 -11 -12 29 -1 33 -11 16 -42 -9 -19
-9 -19 10 -10 28 15 29 15 36 -19 10 -44 25 -37 25 11 l0 41 25 -16 c35 -23
48 -20 30 8 -19 28 -17 29 53 46 71 17 53 32 -23 20 -32 -5 -61 -8 -63 -5 -2
2 3 14 12 27 28 39 18 56 -13 22 l-28 -31 -9 44 c-5 25 -12 42 -16 37z"/>
<path d="M1843 3952 c-34 -5 -73 -50 -73 -84 0 -42 52 -90 93 -86 40 4 68 43
69 96 1 61 -26 84 -89 74z"/>
<path d="M482 2437 c2 -31 1 -57 -1 -57 -3 0 -15 10 -28 22 -28 26 -43 16 -18
-12 23 -26 19 -29 -44 -37 -71 -8 -64 -23 11 -23 61 0 61 0 43 -20 -25 -28
-14 -35 17 -10 l26 20 8 -73 8 -72 10 52 c9 43 14 51 26 43 27 -18 32 -10 11
19 -12 16 -21 31 -21 34 0 2 27 7 60 11 78 9 77 26 -1 26 l-60 0 20 26 c28 36
27 53 -2 26 -31 -29 -35 -28 -43 16 -12 66 -25 72 -22 9z"/>
<path d="M3741 1977 c-1 -44 -3 -48 -22 -42 -17 6 -20 4 -15 -12 5 -14 -1 -22
-21 -30 l-28 -11 34 -1 c33 -1 33 -1 17 -26 -18 -27 -15 -30 14 -15 17 9 20 4
32 -48 l13 -57 5 65 c4 49 7 60 13 43 5 -13 13 -23 19 -23 10 0 8 17 -7 52 -5
13 2 19 37 29 66 19 71 32 9 24 l-55 -7 18 27 c24 36 15 41 -15 9 l-24 -25
-11 48 -12 48 -1 -48z"/>
<path d="M1880 933 c0 -24 -3 -43 -7 -43 -4 0 -20 12 -35 27 -32 31 -38 18 -8
-20 l21 -26 -38 -6 c-65 -11 -70 -19 -15 -23 l53 -3 -31 -40 c-38 -47 -28 -50
22 -9 l37 30 6 -55 c9 -66 25 -73 25 -10 0 42 11 58 25 35 3 -5 11 -10 16 -10
6 0 1 13 -10 29 -28 38 -27 41 13 41 61 0 77 14 23 20 l-49 5 22 28 c30 38 20
44 -19 12 l-31 -27 0 29 c0 15 -5 35 -10 43 -7 11 -10 4 -10 -27z"/>
</g>
</svg>
